<?xml version="1.0" standalone="no"?>
<!DOCTYPE svg PUBLIC "-//W3C//DTD SVG 20010904//EN"
 "http://www.w3.org/TR/2001/REC-SVG-20010904/DTD/svg10.dtd">
<svg version="1.0" xmlns="http://www.w3.org/2000/svg"
 width="136.000000pt" height="135.000000pt" viewBox="0 0 136.000000 135.000000"
 preserveAspectRatio="xMidYMid meet">

<g transform="translate(0.000000,135.000000) scale(0.100000,-0.100000)"
fill="#000000" stroke="none">
<path d="M438 1247 c-15 -12 -32 -34 -37 -49 l-11 -28 135 0 c83 0 135 4 135
10 0 6 -13 10 -30 10 -19 0 -30 5 -30 14 0 8 -14 26 -31 40 -39 33 -93 35
-131 3z"/>
<path d="M410 1130 c0 -36 44 -70 90 -70 46 0 90 34 90 70 0 19 -6 20 -90 20
-84 0 -90 -1 -90 -20z"/>
<path d="M437 982 c-27 -28 -27 -30 -27 -171 0 -137 1 -143 25 -166 23 -24 30
-25 139 -25 63 0 121 -3 130 -6 13 -5 16 -26 16 -128 0 -129 5 -146 46 -146
41 0 46 20 42 164 -3 133 -4 136 -31 163 -24 25 -37 29 -105 33 l-77 5 -3 88
c-1 48 0 87 3 87 3 0 32 -13 65 -30 65 -33 101 -38 120 -15 30 36 -14 69 -194
146 -86 37 -115 37 -149 1z"/>
<path d="M50 780 l0 -160 150 0 150 0 0 160 0 160 -150 0 -150 0 0 -160z m99
73 c1 29 2 30 25 21 21 -8 22 -77 1 -94 -10 -8 -15 -31 -15 -71 0 -46 -3 -59
-15 -59 -12 0 -15 13 -15 59 0 40 -5 63 -15 71 -9 7 -15 29 -15 51 0 42 16 53
23 17 3 -17 5 -13 7 12 l3 35 7 -35 c7 -31 7 -32 9 -7z m132 12 c1 -14 2 -32
2 -40 0 -147 -4 -175 -19 -175 -14 0 -16 7 -11 45 4 25 2 47 -3 50 -14 9 -12
119 2 133 19 19 28 14 29 -13z"/>
<path d="M803 840 l-11 -30 39 0 c46 0 56 -15 94 -145 42 -145 30 -229 -42
-297 -36 -35 -73 -48 -132 -48 -72 0 -139 27 -162 64 -24 40 -24 57 2 89 15
20 19 38 17 69 l-3 43 -298 3 c-269 2 -298 1 -304 -14 -15 -39 9 -49 128 -54
l114 -5 -43 -19 c-48 -22 -91 -66 -111 -114 -17 -40 -9 -62 22 -62 23 0 23 -3
19 -55 -5 -67 9 -105 54 -145 74 -64 163 -61 233 9 36 36 51 73 51 125 l0 22
98 -14 c53 -7 138 -12 187 -10 108 5 151 24 239 105 44 41 61 51 67 41 5 -8 0
-22 -16 -38 -79 -83 -54 -215 52 -266 62 -31 105 -27 165 12 48 31 72 76 72
139 1 96 -56 156 -154 163 -42 3 -60 8 -60 18 0 23 97 21 143 -3 16 -8 31 -13
33 -10 8 8 -75 76 -123 101 -32 16 -69 49 -108 97 -93 113 -114 152 -75 142
18 -5 20 0 20 51 0 61 -1 62 -50 45 -28 -10 -34 -9 -42 5 -6 11 -23 16 -56 16
-44 0 -49 -2 -59 -30z m407 -495 c74 -38 91 -111 39 -170 -28 -31 -36 -35 -81
-35 -43 0 -54 4 -79 31 -31 33 -39 91 -19 130 16 30 28 23 51 -30 23 -55 41
-68 63 -45 16 15 12 33 -18 93 -22 42 -6 52 44 26z m-868 -51 c45 -5 59 -10
64 -26 9 -28 -2 -62 -32 -97 -22 -26 -33 -31 -71 -31 -55 0 -78 12 -98 50 -18
34 -19 73 -4 101 9 17 17 19 47 15 20 -3 63 -8 94 -12z"/>
</g>
</svg>
