<?xml version="1.0" standalone="no"?>
<!DOCTYPE svg PUBLIC "-//W3C//DTD SVG 20010904//EN"
 "http://www.w3.org/TR/2001/REC-SVG-20010904/DTD/svg10.dtd">
<svg version="1.0" xmlns="http://www.w3.org/2000/svg"
 width="136.000000pt" height="136.000000pt" viewBox="0 0 136.000000 136.000000"
 preserveAspectRatio="xMidYMid meet">

<g transform="translate(0.000000,136.000000) scale(0.100000,-0.100000)"
fill="#000000" stroke="none">
<path d="M1167 1183 c-8 -21 -18 -56 -20 -78 -5 -44 -73 -162 -137 -237 -58
-68 -182 -145 -367 -229 l-31 -14 32 -38 33 -37 49 49 c39 39 58 50 94 56 41
6 99 -2 143 -20 26 -11 22 31 -8 83 -14 24 -22 48 -19 53 11 19 35 8 50 -24
l16 -33 52 51 c47 45 53 57 59 104 7 59 56 173 89 209 12 12 30 22 39 22 19 0
40 53 31 78 -5 15 -54 42 -75 42 -8 0 -21 -17 -30 -37z"/>
<path d="M1102 1157 c-6 -12 -13 -34 -16 -50 -4 -15 -40 -65 -81 -111 -56 -63
-90 -91 -143 -119 -143 -75 -381 -134 -642 -158 -74 -7 -147 -18 -162 -26 -38
-18 -38 -64 -1 -99 91 -84 148 -84 233 2 30 31 73 65 95 77 50 26 123 27 160
3 18 -12 36 -15 53 -11 33 8 222 102 243 121 8 8 20 14 26 14 5 0 40 27 75 60
84 76 160 196 169 265 8 58 6 63 -9 32z"/>
<path d="M1047 1154 c-4 -4 -7 -15 -7 -25 0 -19 -123 -130 -172 -155 -124 -64
-298 -88 -590 -81 -202 4 -218 3 -234 -14 -23 -25 -12 -60 30 -97 34 -30 37
-31 118 -26 252 15 591 103 698 183 52 38 137 131 155 169 16 32 17 61 2 46z"/>
<path d="M1156 795 c-21 -7 -44 -19 -50 -25 -8 -10 -6 -10 11 -1 12 6 48 18
80 25 40 10 49 14 28 15 -16 0 -47 -6 -69 -14z"/>
<path d="M1200 766 c-55 -16 -140 -55 -140 -66 0 -13 84 -19 129 -9 50 11 84
28 126 63 l30 25 -50 0 c-27 -1 -70 -6 -95 -13z"/>
<path d="M1020 656 c0 -23 2 -24 30 -15 36 13 38 24 8 33 -35 9 -38 8 -38 -18z"/>
<path d="M424 659 c-16 -5 -48 -25 -70 -44 l-39 -36 50 33 c56 37 68 41 109
41 108 -2 131 -134 50 -283 -14 -25 -18 -38 -9 -29 25 24 75 157 75 198 0 39
-29 94 -57 109 -30 16 -76 21 -109 11z"/>
<path d="M418 544 c-21 -41 -35 -74 -33 -74 6 0 68 37 122 74 18 11 33 26 33
32 0 19 -35 44 -61 43 -20 0 -31 -14 -61 -75z"/>
<path d="M794 605 c-35 -16 -71 -56 -80 -89 -3 -12 2 -41 11 -65 8 -25 15 -77
15 -122 0 -74 2 -80 32 -114 56 -64 86 -73 233 -71 123 2 132 3 173 29 143 92
162 352 32 426 -47 26 -95 27 -161 1 l-51 -21 -55 21 c-62 23 -104 24 -149 5z
m449 -172 c0 -80 -19 -140 -60 -190 -26 -32 -84 -73 -94 -67 -5 3 10 20 33 37
24 18 55 55 70 82 24 44 28 61 28 145 0 72 3 91 12 82 7 -7 11 -42 11 -89z"/>
<path d="M388 594 c-22 -12 -28 -22 -28 -49 0 -19 4 -35 8 -35 5 0 21 23 36
50 29 53 27 58 -16 34z"/>
<path d="M620 539 c0 -81 -77 -244 -148 -314 -50 -50 -117 -85 -164 -86 l-33
-1 42 -19 c139 -64 313 -9 374 118 41 85 25 197 -45 299 l-26 39 0 -36z"/>
<path d="M269 533 c-13 -16 -12 -17 4 -4 9 7 17 15 17 17 0 8 -8 3 -21 -13z"/>
<path d="M317 535 c-17 -17 -17 -18 4 -41 12 -13 23 -23 25 -21 1 1 -1 20 -5
41 -6 38 -7 39 -24 21z"/>
<path d="M476 495 c-75 -47 -74 -51 14 -58 33 -2 34 -1 46 51 6 28 11 52 10
52 0 0 -32 -20 -70 -45z"/>
<path d="M155 485 c-86 -24 -107 -74 -54 -128 l31 -31 18 52 c10 29 28 68 40
87 12 19 20 35 18 34 -2 0 -25 -7 -53 -14z"/>
<path d="M266 475 c-22 -34 -21 -36 23 -33 l40 2 -20 28 c-11 15 -22 28 -24
28 -1 0 -10 -11 -19 -25z"/>
<path d="M345 440 c-3 -5 -1 -10 4 -10 6 0 11 5 11 10 0 6 -2 10 -4 10 -3 0
-8 -4 -11 -10z"/>
<path d="M390 403 c27 -87 34 -103 44 -100 6 2 26 25 44 52 38 56 36 59 -45
70 l-52 7 9 -29z"/>
<path d="M215 388 c-7 -18 -12 -34 -11 -36 2 -1 29 13 61 33 l59 35 -48 0
c-44 0 -48 -2 -61 -32z"/>
<path d="M248 352 c-51 -33 -58 -41 -58 -69 0 -18 5 -33 11 -33 5 0 7 -5 3
-12 -4 -7 -3 -8 4 -4 7 4 12 14 12 22 0 8 5 14 12 14 6 0 8 3 5 7 -4 4 3 18
17 32 23 26 62 82 55 80 -2 0 -30 -17 -61 -37z"/>
<path d="M357 365 c-4 -16 -11 -58 -15 -92 l-9 -62 39 27 c42 30 43 40 9 117
l-18 40 -6 -30z"/>
<path d="M261 273 c-45 -68 -44 -83 4 -83 34 0 44 14 53 75 16 97 4 99 -57 8z"/>
<path d="M440 257 c-55 -62 -55 -62 -12 -29 23 19 42 38 42 42 0 5 10 18 22
30 12 11 18 20 12 20 -5 0 -34 -28 -64 -63z"/>
</g>
</svg>
